<svg xmlns="http://www.w3.org/2000/svg" width="1200" height="780" viewBox="0 0 1200 780" role="img" aria-labelledby="t2"><title id="t2">AI 기반 콘텐츠 제작 및 자동화 도구의 구축 및 활용 전략 핵심 요약</title><rect width="1200" height="780" rx="28" fill="#f7f7f5"/><text x="60" y="72" font-family="system-ui,sans-serif" font-size="34" font-weight="850" fill="#111111">핵심 요약</text><text x="60" y="112" font-family="system-ui,sans-serif" font-size="19" fill="#666666">본문의 검증된 내용을 빠르게 훑기 위한 자동 생성 인포그래픽</text><rect x="60" y="150" width="1080" height="120" rx="20" fill="#ffffff" stroke="#d9d9d6"/><rect x="86" y="174" width="48" height="48" rx="14" fill="#111111"/><text x="100" y="207" font-family="system-ui,sans-serif" font-size="18" font-weight="800" fill="#ffffff">01</text><text x="158" y="193" font-family="system-ui,sans-serif" font-size="26" font-weight="800" fill="#111111">AI 콘텐츠 워크플로우의 구조 및 적용 사례</text><text x="158" y="232" font-family="system-ui,sans-serif" font-size="20" fill="#555555">AI 콘텐츠 워크플로우는 키워드 리서치, 초안 작성, SEO 최적화, 이미지 생성, 발행 5단계로 구성됩</text><rect x="60" y="300" width="1080" height="120" rx="20" fill="#ffffff" stroke="#d9d9d6"/><rect x="86" y="324" width="48" height="48" rx="14" fill="#111111"/><text x="100" y="357" font-family="system-ui,sans-serif" font-size="18" font-weight="800" fill="#ffffff">02</text><text x="158" y="343" font-family="system-ui,sans-serif" font-size="26" font-weight="800" fill="#111111">AI 도구를 콘텐츠 제작의 각 단계에 적용할 때 발생할 수</text><text x="158" y="382" font-family="system-ui,sans-serif" font-size="20" fill="#555555">AI 도구를 콘텐츠 제작의 각 단계에 적용할 때 발생할 수 있는 문제는 품질 관리, 프로세스 정의, 사용</text><rect x="60" y="450" width="1080" height="120" rx="20" fill="#ffffff" stroke="#d9d9d6"/><rect x="86" y="474" width="48" height="48" rx="14" fill="#111111"/><text x="100" y="507" font-family="system-ui,sans-serif" font-size="18" font-weight="800" fill="#ffffff">03</text><text x="158" y="493" font-family="system-ui,sans-serif" font-size="26" font-weight="800" fill="#111111">AI 콘텐츠 워크플로우의 주요 구성 요소</text><text x="158" y="532" font-family="system-ui,sans-serif" font-size="20" fill="#555555">AI 콘텐츠 워크플로우의 주요 구성 요소는 키워드 리서치, 초안 작성, SEO 최적화, 이미지 생성, 발</text><rect x="60" y="600" width="1080" height="120" rx="20" fill="#ffffff" stroke="#d9d9d6"/><rect x="86" y="624" width="48" height="48" rx="14" fill="#111111"/><text x="100" y="657" font-family="system-ui,sans-serif" font-size="18" font-weight="800" fill="#ffffff">04</text><text x="158" y="643" font-family="system-ui,sans-serif" font-size="26" font-weight="800" fill="#111111">AI 콘텐츠 워크플로우를 도입할 때의 전략</text><text x="158" y="682" font-family="system-ui,sans-serif" font-size="20" fill="#555555">AI 콘텐츠 워크플로우를 도입할 때의 전략은 툴의 선택, 사용자 교육, 프로세스 정의, 품질 관리 등이 </text><text x="60" y="748" font-family="system-ui,sans-serif" font-size="16" fill="#8a8a86">AI로 일하는 법 · final fact-checked article</text></svg>